# Blender v2.67 (sub 0) OBJ File: ''
# www.blender.org
mtllib board.mtl
o Cube
v -0.277688 1.160465 3.914409
v -0.277688 1.160465 -3.914412
v -0.277688 6.599417 3.914409
v -0.277688 6.599417 -3.914410
v 0.277689 6.749417 -4.064408
v 0.277687 6.749417 4.064413
v -0.277689 6.749417 4.064409
v -0.277688 6.749417 -4.064410
v 0.277688 1.010465 4.064410
v -0.277689 1.010465 4.064410
v 0.277689 1.010465 -4.064410
v -0.277688 1.010465 -4.064412
v 0.073231 1.270795 -3.755601
v 0.073231 1.270795 -3.755601
v 0.073231 1.270795 -3.755601
v 0.073231 1.270795 3.755601
v 0.073231 1.270795 3.755601
v 0.073231 1.270795 3.755601
v 0.073231 6.489087 -3.755599
v 0.073231 6.489087 -3.755599
v 0.073231 6.489087 -3.755599
v 0.073231 6.489087 3.755603
v 0.073231 6.489087 3.755603
v 0.073231 6.489087 3.755603
v -0.277688 1.160465 3.914409
v -0.277688 1.160465 3.914409
v -0.277688 1.160465 3.914409
v -0.277688 1.160465 -3.914412
v -0.277688 1.160465 -3.914412
v -0.277688 1.160465 -3.914412
v -0.277688 6.599417 3.914409
v -0.277688 6.599417 3.914409
v -0.277688 6.599417 3.914409
v -0.277688 6.599417 -3.914410
v -0.277688 6.599417 -3.914410
v -0.277688 6.599417 -3.914410
v 0.277689 6.749417 -4.064408
v 0.277689 6.749417 -4.064408
v 0.277689 6.749417 -4.064408
v 0.277689 6.749417 -4.064408
v 0.277687 6.749417 4.064413
v 0.277687 6.749417 4.064413
v 0.277687 6.749417 4.064413
v 0.277687 6.749417 4.064413
v -0.277688 6.749417 -4.064410
v -0.277688 6.749417 -4.064410
v -0.277688 6.749417 -4.064410
v -0.277688 6.749417 -4.064410
v -0.277689 6.749417 4.064409
v -0.277689 6.749417 4.064409
v -0.277689 6.749417 4.064409
v -0.277689 6.749417 4.064409
v 0.277688 1.010465 4.064410
v 0.277688 1.010465 4.064410
v 0.277688 1.010465 4.064410
v 0.277688 1.010465 4.064410
v -0.277689 1.010465 4.064410
v -0.277689 1.010465 4.064410
v -0.277689 1.010465 4.064410
v -0.277689 1.010465 4.064410
v 0.277689 1.010465 -4.064410
v 0.277689 1.010465 -4.064410
v 0.277689 1.010465 -4.064410
v 0.277689 1.010465 -4.064410
v -0.277688 1.010465 -4.064412
v -0.277688 1.010465 -4.064412
v -0.277688 1.010465 -4.064412
v -0.277688 1.010465 -4.064412
v 0.073231 1.270795 -3.755601
v 0.073231 1.270795 3.755601
v 0.073231 6.489087 -3.755599
v 0.073231 6.489087 3.755603
v -0.224736 -0.263644 3.371318
v -0.224736 -0.263644 2.987625
v 0.158956 -0.263644 2.987625
v 0.158956 -0.263644 3.371318
v -0.224736 1.124989 3.371318
v -0.224736 1.124989 2.987625
v 0.158956 1.124989 2.987625
v 0.158956 1.124989 3.371318
v -0.224736 -0.263644 -2.882437
v -0.224736 -0.263644 -3.266129
v 0.158956 -0.263644 -3.266129
v 0.158956 -0.263644 -2.882437
v -0.224736 1.124989 -2.882437
v -0.224736 1.124989 -3.266129
v 0.158956 1.124989 -3.266129
v 0.158956 1.124989 -2.882437
v -0.224736 1.124989 3.371318
v -0.224736 1.124989 3.371318
v -0.224736 1.124989 2.987625
v -0.224736 1.124989 2.987625
v -0.224736 -0.263644 2.987625
v -0.224736 -0.263644 2.987625
v -0.224736 -0.263644 3.371318
v -0.224736 -0.263644 3.371318
v 0.158956 1.124989 2.987625
v 0.158956 1.124989 2.987625
v 0.158956 -0.263644 2.987625
v 0.158956 -0.263644 2.987625
v 0.158956 1.124989 3.371318
v 0.158956 1.124989 3.371318
v 0.158956 -0.263644 3.371318
v 0.158956 -0.263644 3.371318
v -0.224736 1.124989 -2.882437
v -0.224736 1.124989 -2.882437
v -0.224736 1.124989 -3.266129
v -0.224736 1.124989 -3.266129
v -0.224736 -0.263644 -3.266129
v -0.224736 -0.263644 -3.266129
v -0.224736 -0.263644 -2.882437
v -0.224736 -0.263644 -2.882437
v 0.158956 1.124989 -3.266129
v 0.158956 1.124989 -3.266129
v 0.158956 -0.263644 -3.266129
v 0.158956 -0.263644 -3.266129
v 0.158956 1.124989 -2.882437
v 0.158956 1.124989 -2.882437
v 0.158956 -0.263644 -2.882437
v 0.158956 -0.263644 -2.882437
vt 0.072904 0.888916
vt 0.073177 0.731651
vt 0.892156 0.890337
vt 0.033572 0.648137
vt 0.966498 0.648137
vt 0.966498 0.992902
vt 0.885403 0.739675
vt 0.891024 0.901804
vt 0.046432 0.931085
vt 0.954577 0.995841
vt 0.021651 0.995841
vt 0.021651 0.651076
vt 0.012114 0.940261
vt 0.012114 0.874080
vt 0.945039 0.874080
vt 0.933118 0.757066
vt 0.933118 0.823248
vt 0.000193 0.823248
vt 0.831574 0.730632
vt 0.836172 0.882838
vt 0.038673 0.754583
vt -0.004575 0.653460
vt 0.928462 0.653460
vt 0.928462 0.998267
vt 0.904279 0.752987
vt 0.905988 0.884039
vt 0.223290 0.892944
vt 0.954688 0.997752
vt 0.021651 0.997752
vt 0.021651 0.652946
vt 0.009730 0.904588
vt 0.009730 0.838399
vt 0.942766 0.838399
vt 0.966608 0.850139
vt 0.966608 0.916329
vt 0.033572 0.916329
vt 0.892429 0.733072
vt 0.033572 0.992902
vt 0.040812 0.768955
vt 0.954577 0.651076
vt 0.945039 0.940261
vt 0.000193 0.757066
vt 0.043270 0.906790
vt -0.004575 0.998267
vt 0.221580 0.761891
vt 0.954688 0.652946
vt 0.942766 0.904589
vt 0.033572 0.850139
vt 0.959132 0.877638
vt 0.040502 0.877634
vt 0.976736 0.852300
vt 0.035266 0.995853
vt 0.035266 0.669132
vt 0.945133 0.995853
vt 0.076385 0.678435
vt 0.893378 0.678436
vt 0.893378 0.972183
vt 0.061741 0.675675
vt 0.955591 0.675674
vt 0.992341 0.956351
vt 0.613511 0.926087
vt 0.133853 0.904669
vt 0.133853 0.879178
vt 0.114185 0.737657
vt 0.599415 0.715982
vt 0.114183 0.763444
vt 0.940474 0.647273
vt 0.940473 0.992016
vt 0.042978 0.647273
vt 0.122126 0.901989
vt 0.328573 0.892696
vt 0.448853 0.912960
vt 0.898088 0.990689
vt 0.898087 0.663958
vt 0.904347 0.999699
vt 0.654947 0.984052
vt 0.654947 0.670585
vt 0.775916 0.654947
vt 0.911185 0.967892
vt 0.073547 0.967892
vt 0.073547 0.641170
vt 0.181226 0.766192
vt 0.830560 0.811308
vt 0.162456 0.777387
vt 0.629811 0.853269
vt 0.101284 0.829667
vt 0.937723 0.801280
vt 0.019080 0.989094
vt 0.345797 0.989095
vt 0.012820 0.998105
vt 0.916374 0.997716
vt 0.002199 0.986899
vt 0.008333 0.645963
vt 0.897485 0.670585
vt 0.897485 0.984052
vt 0.776517 0.999690
vt 0.988340 0.970203
vt 0.032136 0.970203
vt 0.032134 0.643481
vt 1.001168 0.004077
vt 1.001168 0.638868
vt 0.001884 0.638868
vt 0.022901 0.852300
vt 0.945133 0.669132
vt 0.076385 0.972182
vt 0.024993 0.956351
vt 0.892948 0.878905
vt 0.882101 0.763708
vt 0.042978 0.992016
vt 0.122129 0.912960
vt 0.904347 0.654947
vt 0.775916 0.999690
vt 0.911185 0.641170
vt 0.847603 0.824993
vt 0.101284 0.801578
vt 0.352057 0.998106
vt 0.997678 0.657668
vt 0.776517 0.654947
vt 0.988339 0.643481
vt 0.001884 0.004077
vn -1.000000 0.000000 0.000000
vn 0.000000 0.000000 -1.000000
vn 1.000000 -0.000000 0.000000
vn 0.000000 0.000000 1.000000
vn 0.000000 -1.000000 0.000000
vn 0.000000 1.000000 0.000000
vn -0.999969 0.000000 0.000000
vn 0.786431 -0.617634 0.000000
vn 0.022523 -0.751610 -0.659200
vn 0.097201 -0.703757 -0.703726
vn 0.044496 -0.738304 -0.672964
vn 0.097201 -0.703757 0.703757
vn 0.022523 -0.751610 0.659200
vn 0.044496 -0.738304 0.672964
vn -0.016755 -0.737358 -0.675253
vn -0.040101 -0.776879 -0.628346
vn -0.026887 -0.754875 -0.655293
vn 0.833796 0.000000 0.552049
vn -0.040101 -0.776879 0.628346
vn -0.016755 -0.737388 0.675253
vn -0.026887 -0.754875 0.655293
vn 0.786431 0.617634 0.000000
vn 0.833796 0.000000 -0.552049
vn 0.000000 -0.999969 0.000000
vn 0.000000 0.999969 0.000000
vn 0.000000 -0.764550 -0.644520
vn 0.000000 -0.764550 0.644520
vn 0.000000 -0.707083 -0.707083
vn 0.000000 -0.707083 0.707083
usemtl None
s off
f 77/2/1 78/4/8 73/3/15
f 91/4/2 79/5/2 75/6/2
f 97/7/3 80/8/3 76/9/3
f 101/10/4 89/11/4 95/12/4
f 96/13/5 94/14/5 100/15/5
f 102/16/6 98/17/6 92/18/6
f 85/19/1 86/20/1 81/21/1
f 107/22/2 87/23/2 83/24/2
f 113/25/3 88/26/3 84/27/3
f 117/28/4 105/29/4 111/30/4
f 112/31/5 110/32/5 116/33/5
f 118/34/6 114/35/6 108/36/6
f 78/2/1 74/37/1 73/3/1
f 93/38/2 91/4/2 75/6/2
f 99/39/3 97/7/3 76/9/3
f 103/40/4 101/10/4 95/12/4
f 104/41/5 96/13/5 100/15/5
f 90/42/6 102/16/6 92/18/6
f 86/20/1 82/43/1 81/21/1
f 109/44/2 107/22/2 83/24/2
f 115/45/3 113/25/3 84/27/3
f 119/46/4 117/28/4 111/30/4
f 120/47/5 112/31/5 116/33/5
f 106/48/6 118/34/6 108/36/6
f 35/49/1 32/50/7 45/51/1
f 25/52/1 3/53/7 28/54/1
f 5/55/6 47/56/6 51/57/6
f 24/58/8 21/59/8 39/60/8
f 19/61/9 34/62/10 8/63/11
f 31/64/12 22/65/13 7/66/14
f 54/67/4 42/68/4 57/69/4
f 1/70/15 16/71/16 9/72/17
f 33/73/1 26/74/1 52/75/7
f 20/76/18 15/77/18 62/78/18
f 40/79/2 64/80/2 65/81/2
f 30/82/1 36/83/1 68/84/7
f 13/85/19 2/86/20 11/87/21
f 27/88/1 29/89/1 59/90/1
f 14/91/22 17/92/22 53/93/22
f 18/94/23 23/95/23 44/96/23
f 63/97/24 55/98/5 60/99/5
f 69/100/3 71/101/3 72/102/3
f 32/50/7 49/103/1 45/51/1
f 3/53/7 4/104/1 28/54/1
f 6/105/25 5/55/6 51/57/6
f 43/106/8 24/58/8 39/60/8
f 37/107/26 19/61/9 8/63/11
f 22/65/13 41/108/27 7/66/14
f 42/68/4 50/109/4 57/69/4
f 10/110/28 1/70/15 9/72/17
f 26/74/1 58/111/1 52/75/7
f 38/112/18 20/76/18 62/78/18
f 46/113/2 40/79/2 65/81/2
f 36/83/1 48/114/1 68/84/7
f 2/86/20 12/115/29 11/87/21
f 29/89/1 66/116/1 59/90/1
f 61/117/22 14/91/22 53/93/22
f 56/118/23 18/94/23 44/96/23
f 67/119/5 63/97/24 60/99/5
f 70/120/3 69/100/3 72/102/3
